<svg width="500" height="394" viewBox="0 0 500 394" fill="none" xmlns="http://www.w3.org/2000/svg">
<path d="M122.307 199.116C131.359 222.706 119.58 249.169 95.998 258.224C72.4161 267.278 45.96 255.497 36.9073 231.907C32.2908 219.877 28.7021 195.776 29.3952 173.44C29.741 162.295 31.1497 151.774 33.9325 143.528C36.7444 135.195 40.7628 129.737 45.9292 127.753C51.0955 125.77 57.7326 127.136 65.3965 131.446C72.981 135.712 81.0654 142.587 88.7783 150.639C104.235 166.774 117.69 187.086 122.307 199.116Z" fill="#C47500" stroke="black" stroke-width="5"/>
<path d="M463.092 231.907C454.04 255.497 427.584 267.278 404.002 258.224C380.42 249.169 368.641 222.706 377.693 199.116C382.31 187.086 395.765 166.774 411.222 150.639C418.934 142.587 427.019 135.712 434.603 131.446C442.267 127.136 448.904 125.77 454.071 127.753C459.237 129.737 463.255 135.195 466.067 143.528C468.85 151.774 470.259 162.295 470.605 173.44C471.298 195.776 467.709 219.877 463.092 231.907Z" fill="#C47500" stroke="black" stroke-width="5"/>
<path d="M234.49 108.039C236.476 136.448 215.063 161.088 186.663 163.074C158.264 165.06 133.63 143.642 131.644 115.233C130.633 100.777 134.692 73.7345 142.758 50.005C146.784 38.1611 151.75 27.3193 157.457 19.3613C163.216 11.3292 169.38 6.70732 175.701 6.26521C182.022 5.8231 188.769 9.54191 195.59 16.694C202.348 23.7801 208.775 33.8251 214.409 44.9932C225.698 67.369 233.48 93.5831 234.49 108.039Z" fill="#C47500" stroke="black" stroke-width="5"/>
<path d="M365.842 115.233C363.856 143.642 339.222 165.06 310.823 163.074C282.423 161.088 261.01 136.448 262.996 108.039C264.006 93.5831 271.788 67.369 283.077 44.9932C288.711 33.8251 295.138 23.7801 301.896 16.694C308.717 9.54192 315.464 5.82311 321.785 6.26522C328.106 6.70733 334.27 11.3292 340.029 19.3613C345.736 27.3193 350.702 38.1611 354.728 50.005C362.794 73.7346 366.853 100.777 365.842 115.233Z" fill="#C47500" stroke="black" stroke-width="5"/>
<path d="M406.243 351.415C406.243 366.53 400.634 375.949 391.493 381.895C382.139 387.98 368.796 390.621 353.039 391.296C337.337 391.969 319.622 390.681 301.749 389.208C299.899 389.055 298.047 388.901 296.195 388.746C280.228 387.414 264.302 386.084 249.975 386.084C235.916 386.084 219.82 387.365 203.386 388.672C201.138 388.851 198.885 389.03 196.629 389.207C177.811 390.68 158.818 391.969 141.836 391.295C124.798 390.619 110.148 387.973 99.8201 381.841C94.6991 378.801 90.6704 374.921 87.9084 370.005C85.1447 365.086 83.573 358.993 83.573 351.415C83.573 336.181 89.93 318.139 100.708 299.501C111.46 280.908 126.483 261.942 143.505 244.914C160.528 227.887 179.488 212.86 198.076 202.105C216.709 191.324 234.746 184.966 249.975 184.966C265.189 184.966 282.58 191.313 300.242 202.076C317.867 212.816 335.555 227.827 351.312 244.845C367.067 261.862 380.832 280.822 390.645 299.416C400.478 318.048 406.243 336.122 406.243 351.415Z" fill="#C47500" stroke="black" stroke-width="5"/>
</svg>
