<svg width="2430" height="430" viewBox="0 0 2430 430" fill="none" xmlns="http://www.w3.org/2000/svg">
<path d="M633.1 131C652.3 131 667.6 136.5 679 147.5C690.4 158.3 696.1 173.2 696.1 192.2C696.1 211.2 688.9 227.5 674.5 241.1C660.1 254.5 642.5 261.2 621.7 261.2H604.6L608.2 338H568L571.6 265.1L568 131H633.1ZM622.3 161.3H607.6L605.5 232.1H625.9C635.9 232.1 643.6 228.8 649 222.2C654.6 215.6 657.4 206.2 657.4 194C657.4 172.2 645.7 161.3 622.3 161.3ZM744.037 338C732.237 338 722.537 334.3 714.937 326.9C707.537 319.3 703.837 309.2 703.837 296.6C703.837 283.8 709.637 272.8 721.237 263.6C732.837 254.2 746.937 249.5 763.537 249.5H783.937V244.4C783.937 234.6 781.937 227.9 777.937 224.3C773.937 220.7 766.437 218.9 755.437 218.9C750.837 218.9 745.337 219.9 738.937 221.9C732.737 223.7 725.737 226.6 717.937 230.6L709.237 206.9C717.837 200.9 728.237 195.5 740.437 190.7C752.837 185.9 763.037 183.5 771.037 183.5C802.437 183.5 818.137 198.7 818.137 229.1V287.9C818.137 299.1 821.637 311.6 828.637 325.4L796.837 338.9C791.837 329.3 788.137 320.7 785.737 313.1C774.737 329.7 760.837 338 744.037 338ZM756.637 307.4C764.637 307.4 773.737 303.3 783.937 295.1V275C773.337 272.6 764.737 271.4 758.137 271.4C745.537 271.4 739.237 277 739.237 288.2C739.237 294 740.837 298.7 744.037 302.3C747.237 305.7 751.437 307.4 756.637 307.4ZM866.362 192.8V160.1L906.862 152.3L902.962 192.8H939.262L935.962 217.4H901.762L900.262 280.1C900.262 289.5 901.162 295.8 902.962 299C904.762 302 908.062 303.5 912.862 303.5C917.662 303.5 924.062 302.4 932.062 300.2L933.862 321.5C920.662 332.5 909.062 338 899.062 338C889.062 338 880.862 334.4 874.462 327.2C868.062 319.8 864.862 310.2 864.862 298.4L866.662 264.8L866.362 217.4H845.662L848.962 192.8H866.362ZM1001.5 185.3L997.902 260L1001.2 330.5L961.002 338L964.602 265.1L961.302 192.8L1001.5 185.3ZM959.202 141.5C959.202 134.7 961.802 128.7 967.002 123.5C972.202 118.1 978.202 115.4 985.002 115.4C991.802 115.4 997.002 117.3 1000.6 121.1C1004.2 124.7 1006 130.2 1006 137.6C1006 145 1003.4 151.4 998.202 156.8C993.202 162 987.302 164.6 980.502 164.6C973.902 164.6 968.702 162.4 964.902 158C961.102 153.6 959.202 148.1 959.202 141.5ZM1121.54 262.1C1121.54 248.3 1120.34 239.1 1117.94 234.5C1115.54 229.9 1109.94 227.6 1101.14 227.6C1092.34 227.6 1082.34 231.1 1071.14 238.1V260L1074.44 330.5L1034.24 338L1037.84 265.1C1037.04 238.3 1034.84 214.3 1031.24 193.1L1067.54 185.3C1068.94 196.9 1069.94 208.2 1070.54 219.2C1073.54 215.2 1076.94 211.3 1080.74 207.5C1084.54 203.5 1090.54 199.1 1098.74 194.3C1106.94 189.3 1115.54 186.8 1124.54 186.8C1133.74 186.8 1141.44 190.4 1147.64 197.6C1153.84 204.6 1156.94 214.2 1156.94 226.4L1155.14 260L1158.44 332L1117.94 339.5L1121.54 262.1ZM1279.18 262.1C1279.18 248.3 1277.98 239.1 1275.58 234.5C1273.18 229.9 1267.58 227.6 1258.78 227.6C1249.98 227.6 1239.98 231.1 1228.78 238.1V260L1232.08 330.5L1191.58 338L1195.18 265.1L1191.58 113.3L1232.68 105.8L1228.78 183.5V218.6C1231.78 214.6 1235.18 210.7 1238.98 206.9C1242.78 203.1 1248.68 198.8 1256.68 194C1264.68 189.2 1273.18 186.8 1282.18 186.8C1291.38 186.8 1299.08 190.4 1305.28 197.6C1311.48 204.6 1314.58 214.2 1314.58 226.4L1312.78 260L1316.08 332L1275.58 339.5L1279.18 262.1ZM1379.19 338C1367.39 338 1357.69 334.3 1350.09 326.9C1342.69 319.3 1338.99 309.2 1338.99 296.6C1338.99 283.8 1344.79 272.8 1356.39 263.6C1367.99 254.2 1382.09 249.5 1398.69 249.5H1419.09V244.4C1419.09 234.6 1417.09 227.9 1413.09 224.3C1409.09 220.7 1401.59 218.9 1390.59 218.9C1385.99 218.9 1380.49 219.9 1374.09 221.9C1367.89 223.7 1360.89 226.6 1353.09 230.6L1344.39 206.9C1352.99 200.9 1363.39 195.5 1375.59 190.7C1387.99 185.9 1398.19 183.5 1406.19 183.5C1437.59 183.5 1453.29 198.7 1453.29 229.1V287.9C1453.29 299.1 1456.79 311.6 1463.79 325.4L1431.99 338.9C1426.99 329.3 1423.29 320.7 1420.89 313.1C1409.89 329.7 1395.99 338 1379.19 338ZM1391.79 307.4C1399.79 307.4 1408.89 303.3 1419.09 295.1V275C1408.49 272.6 1399.89 271.4 1393.29 271.4C1380.69 271.4 1374.39 277 1374.39 288.2C1374.39 294 1375.99 298.7 1379.19 302.3C1382.39 305.7 1386.59 307.4 1391.79 307.4ZM1535.12 310.1C1545.52 310.1 1550.72 305.5 1550.72 296.3C1550.72 293.1 1548.42 290.1 1543.82 287.3C1539.42 284.5 1533.92 281.7 1527.32 278.9C1520.92 276.1 1514.42 273 1507.82 269.6C1501.42 266 1495.92 261.1 1491.32 254.9C1486.92 248.7 1484.72 241.6 1484.72 233.6C1484.72 220.2 1490.62 208.5 1502.42 198.5C1514.22 188.5 1527.82 183.5 1543.22 183.5C1550.42 183.5 1557.42 184.4 1564.22 186.2C1571.22 187.8 1577.92 190.4 1584.32 194L1564.22 230.6C1562.82 229.4 1561.02 227.9 1558.82 226.1C1556.62 224.3 1552.42 222 1546.22 219.2C1540.22 216.2 1534.82 214.7 1530.02 214.7C1525.42 214.7 1521.82 215.8 1519.22 218C1516.82 220 1515.62 222.9 1515.62 226.7C1515.62 230.3 1519.02 234 1525.82 237.8C1532.82 241.4 1540.42 244.8 1548.62 248C1556.82 251 1564.32 256.1 1571.12 263.3C1578.12 270.3 1581.62 278.7 1581.62 288.5C1581.62 302.5 1575.82 314.8 1564.22 325.4C1552.82 336 1539.62 341.3 1524.62 341.3C1515.02 341.3 1506.02 339.2 1497.62 335C1489.42 330.8 1483.52 326.6 1479.92 322.4L1474.52 316.1L1498.22 288.5C1499.42 290.1 1501.12 292.1 1503.32 294.5C1505.52 296.9 1509.82 300.1 1516.22 304.1C1522.82 308.1 1529.12 310.1 1535.12 310.1Z" fill="black"/>
<path d="M1766.07 163.1H1702.17L1700.37 218.3H1757.67L1754.37 250.1H1699.47L1699.17 260L1702.77 338H1660.77L1664.37 265.1L1660.77 131H1769.37L1766.07 163.1ZM1840.89 307.4C1846.69 307.4 1852.79 305.9 1859.19 302.9C1865.59 299.9 1870.59 296.9 1874.19 293.9L1879.59 289.4L1893.39 306.2C1891.39 309.6 1888.29 313.5 1884.09 317.9C1879.89 322.3 1875.59 326.1 1871.19 329.3C1866.99 332.3 1861.29 335.1 1854.09 337.7C1847.09 340.1 1839.79 341.3 1832.19 341.3C1815.99 341.3 1802.79 335.2 1792.59 323C1782.39 310.6 1777.29 294.7 1777.29 275.3C1777.29 250.9 1784.39 229.5 1798.59 211.1C1812.79 192.7 1829.39 183.5 1848.39 183.5C1862.99 183.5 1874.29 187.6 1882.29 195.8C1890.49 204 1894.59 215.5 1894.59 230.3C1894.59 239.1 1893.09 249.1 1890.09 260.3L1884.09 266.6L1809.09 273.5C1812.49 296.1 1823.09 307.4 1840.89 307.4ZM1840.89 214.4C1832.09 214.4 1824.69 218 1818.69 225.2C1812.69 232.2 1809.19 241.2 1808.19 252.2L1859.19 245.9C1859.79 241.3 1860.09 237.5 1860.09 234.5C1860.09 221.1 1853.69 214.4 1840.89 214.4ZM1961.88 105.8L1957.98 260L1961.28 330.5L1920.78 338L1924.38 265.1L1920.78 113.3L1961.88 105.8ZM2036.85 185.3L2033.25 260L2036.55 330.5L1996.35 338L1999.95 265.1L1996.65 192.8L2036.85 185.3ZM1994.55 141.5C1994.55 134.7 1997.15 128.7 2002.35 123.5C2007.55 118.1 2013.55 115.4 2020.35 115.4C2027.15 115.4 2032.35 117.3 2035.95 121.1C2039.55 124.7 2041.35 130.2 2041.35 137.6C2041.35 145 2038.75 151.4 2033.55 156.8C2028.55 162 2022.65 164.6 2015.85 164.6C2009.25 164.6 2004.05 162.4 2000.25 158C1996.45 153.6 1994.55 148.1 1994.55 141.5ZM2064.8 308.3L2128.1 218L2061.8 222.5L2068.7 184.7L2120 188L2170.1 184.4L2165 215.6L2101.4 306.2L2174.3 302L2167.7 339.8L2116.7 336.5L2059.7 339.8L2064.8 308.3ZM2248.99 307.4C2254.79 307.4 2260.89 305.9 2267.29 302.9C2273.69 299.9 2278.69 296.9 2282.29 293.9L2287.69 289.4L2301.49 306.2C2299.49 309.6 2296.39 313.5 2292.19 317.9C2287.99 322.3 2283.69 326.1 2279.29 329.3C2275.09 332.3 2269.39 335.1 2262.19 337.7C2255.19 340.1 2247.89 341.3 2240.29 341.3C2224.09 341.3 2210.89 335.2 2200.69 323C2190.49 310.6 2185.39 294.7 2185.39 275.3C2185.39 250.9 2192.49 229.5 2206.69 211.1C2220.89 192.7 2237.49 183.5 2256.49 183.5C2271.09 183.5 2282.39 187.6 2290.39 195.8C2298.59 204 2302.69 215.5 2302.69 230.3C2302.69 239.1 2301.19 249.1 2298.19 260.3L2292.19 266.6L2217.19 273.5C2220.59 296.1 2231.19 307.4 2248.99 307.4ZM2248.99 214.4C2240.19 214.4 2232.79 218 2226.79 225.2C2220.79 232.2 2217.29 241.2 2216.29 252.2L2267.29 245.9C2267.89 241.3 2268.19 237.5 2268.19 234.5C2268.19 221.1 2261.79 214.4 2248.99 214.4ZM2374.18 310.1C2384.58 310.1 2389.78 305.5 2389.78 296.3C2389.78 293.1 2387.48 290.1 2382.88 287.3C2378.48 284.5 2372.98 281.7 2366.38 278.9C2359.98 276.1 2353.48 273 2346.88 269.6C2340.48 266 2334.98 261.1 2330.38 254.9C2325.98 248.7 2323.78 241.6 2323.78 233.6C2323.78 220.2 2329.68 208.5 2341.48 198.5C2353.28 188.5 2366.88 183.5 2382.28 183.5C2389.48 183.5 2396.48 184.4 2403.28 186.2C2410.28 187.8 2416.98 190.4 2423.38 194L2403.28 230.6C2401.88 229.4 2400.08 227.9 2397.88 226.1C2395.68 224.3 2391.48 222 2385.28 219.2C2379.28 216.2 2373.88 214.7 2369.08 214.7C2364.48 214.7 2360.88 215.8 2358.28 218C2355.88 220 2354.68 222.9 2354.68 226.7C2354.68 230.3 2358.08 234 2364.88 237.8C2371.88 241.4 2379.48 244.8 2387.68 248C2395.88 251 2403.38 256.1 2410.18 263.3C2417.18 270.3 2420.68 278.7 2420.68 288.5C2420.68 302.5 2414.88 314.8 2403.28 325.4C2391.88 336 2378.68 341.3 2363.68 341.3C2354.08 341.3 2345.08 339.2 2336.68 335C2328.48 330.8 2322.58 326.6 2318.98 322.4L2313.58 316.1L2337.28 288.5C2338.48 290.1 2340.18 292.1 2342.38 294.5C2344.58 296.9 2348.88 300.1 2355.28 304.1C2361.88 308.1 2368.18 310.1 2374.18 310.1Z" fill="#FF9900"/>
<path d="M122.307 199.116C131.359 222.706 119.58 249.169 95.998 258.224C72.4161 267.278 45.96 255.497 36.9073 231.907C32.2908 219.877 28.7021 195.776 29.3952 173.44C29.741 162.295 31.1497 151.774 33.9325 143.528C36.7444 135.195 40.7628 129.737 45.9292 127.753C51.0955 125.77 57.7326 127.136 65.3965 131.446C72.981 135.712 81.0654 142.587 88.7783 150.639C104.235 166.774 117.69 187.086 122.307 199.116Z" fill="#C47500" stroke="black" stroke-width="5"/>
<path d="M463.092 231.907C454.04 255.497 427.584 267.278 404.002 258.224C380.42 249.169 368.641 222.706 377.693 199.116C382.31 187.086 395.765 166.774 411.222 150.639C418.934 142.587 427.019 135.712 434.603 131.446C442.267 127.136 448.904 125.77 454.071 127.753C459.237 129.737 463.255 135.195 466.067 143.528C468.85 151.774 470.259 162.295 470.605 173.44C471.298 195.776 467.709 219.877 463.092 231.907Z" fill="#C47500" stroke="black" stroke-width="5"/>
<path d="M234.49 108.039C236.476 136.448 215.063 161.088 186.663 163.074C158.264 165.06 133.63 143.642 131.644 115.233C130.633 100.777 134.692 73.7345 142.758 50.005C146.784 38.1611 151.75 27.3193 157.457 19.3613C163.216 11.3292 169.38 6.70732 175.701 6.26521C182.022 5.8231 188.769 9.5419 195.59 16.694C202.348 23.7801 208.775 33.8251 214.409 44.9932C225.698 67.369 233.48 93.5831 234.49 108.039Z" fill="#C47500" stroke="black" stroke-width="5"/>
<path d="M365.842 115.233C363.856 143.642 339.222 165.06 310.823 163.074C282.423 161.088 261.01 136.448 262.996 108.039C264.006 93.5831 271.788 67.369 283.077 44.9932C288.711 33.8251 295.138 23.7801 301.896 16.694C308.717 9.54192 315.464 5.82311 321.785 6.26522C328.106 6.70733 334.27 11.3292 340.029 19.3613C345.736 27.3193 350.702 38.1611 354.728 50.005C362.794 73.7346 366.853 100.777 365.842 115.233Z" fill="#C47500" stroke="black" stroke-width="5"/>
<path d="M406.243 351.415C406.243 366.53 400.634 375.949 391.493 381.895C382.139 387.98 368.796 390.621 353.039 391.296C337.337 391.969 319.622 390.681 301.749 389.208C299.899 389.055 298.047 388.901 296.196 388.746C280.229 387.414 264.302 386.084 249.975 386.084C235.915 386.084 219.819 387.365 203.385 388.672C201.138 388.851 198.884 389.03 196.629 389.207C177.811 390.68 158.818 391.969 141.836 391.295C124.798 390.619 110.148 387.973 99.8201 381.841C94.6991 378.801 90.6704 374.921 87.9084 370.005C85.1447 365.086 83.573 358.993 83.573 351.415C83.573 336.181 89.93 318.139 100.708 299.501C111.46 280.908 126.483 261.942 143.505 244.914C160.528 227.887 179.488 212.86 198.076 202.105C216.709 191.324 234.746 184.966 249.975 184.966C265.189 184.966 282.58 191.313 300.242 202.076C317.867 212.816 335.555 227.827 351.312 244.845C367.067 261.862 380.832 280.822 390.645 299.416C400.478 318.048 406.243 336.122 406.243 351.415Z" fill="#C47500" stroke="black" stroke-width="5"/>
</svg>
